<svg width="17" height="17" viewBox="0 0 17 17" fill="none" xmlns="http://www.w3.org/2000/svg">
<path d="M15.1586 0H3.25408C2.58455 0 2.02917 0.517741 2.02917 1.18734V2.25614C1.19434 2.36482 0.627197 3.04285 0.627197 3.86272C0.627197 4.68266 1.19434 5.36077 2.02917 5.46937V6.90291C1.27024 7.03785 0.689809 7.70183 0.689809 8.49992C0.689809 9.29801 1.27024 9.962 2.02917 10.0969V11.5305C1.19434 11.6392 0.627197 12.3172 0.627197 13.1371C0.627197 13.957 1.19434 14.6351 2.02917 14.7437V15.8125C2.02917 16.482 2.58447 16.9998 3.25408 16.9998H15.1586C15.8282 16.9998 16.3729 16.4821 16.3729 15.8125V1.18734C16.3729 0.517741 15.8282 0 15.1586 0ZM13.2613 14.192H5.14077V12.6741H13.2613V14.192ZM13.0896 9.81568L12.7212 10.1615C12.5697 10.2805 12.3943 10.3799 12.2069 10.4531C12.0322 10.5207 11.8604 10.5636 11.6815 10.5847C11.5991 10.5939 9.69184 10.7721 7.32527 8.4062C5.61381 6.69405 4.98276 5.43264 5.14973 4.05215C5.16863 3.88033 5.21158 3.7085 5.27988 3.52818C5.3538 3.33936 5.45315 3.16397 5.57215 3.01181L5.91799 2.64487C6.17868 2.38433 6.59488 2.37658 6.84495 2.62741L8.10636 3.88883C8.35719 4.13942 8.34945 4.55509 8.08944 4.81563L7.87959 5.02547L7.45353 5.451C7.47531 5.49047 7.49785 5.53122 7.52183 5.57342C7.74435 5.97497 8.04944 6.52512 8.62896 7.10478C9.20719 7.68301 9.75589 7.98719 10.1574 8.20986C10.2011 8.23437 10.2427 8.25767 10.2827 8.27946L10.9181 7.64423C11.178 7.38422 11.5936 7.37648 11.8449 7.62655L13.1058 8.88796C13.3564 9.13955 13.3487 9.55499 13.0896 9.81568Z" fill="#787676"/>
</svg>
